<svg aria-hidden="true" style="position: absolute; width: 0; height: 0; overflow: hidden;" version="1.1" xmlns="http://www.w3.org/2000/svg" xmlns:xlink="http://www.w3.org/1999/xlink">
<defs>

<symbol id="icon-facebook2" viewBox="0 0 32 32">
<path d="M29 0h-26c-1.65 0-3 1.35-3 3v26c0 1.65 1.35 3 3 3h13v-14h-4v-4h4v-2c0-3.306 2.694-6 6-6h4v4h-4c-1.1 0-2 0.9-2 2v2h6l-1 4h-5v14h9c1.65 0 3-1.35 3-3v-26c0-1.65-1.35-3-3-3z"></path>
</symbol>
<symbol id="icon-tick" viewBox="0 0 24 24">
<path d="M16.972 6.251c-0.967-0.538-2.185-0.188-2.72 0.777l-3.713 6.682-2.125-2.125c-0.781-0.781-2.047-0.781-2.828 0s-0.781 2.047 0 2.828l4 4c0.378 0.379 0.888 0.587 1.414 0.587 0.092 0 0.185-0.006 0.277-0.020 0.621-0.087 1.166-0.46 1.471-1.009l5-9c0.537-0.966 0.189-2.183-0.776-2.72z"></path>
</symbol>
<symbol id="icon-twitter" viewBox="0 0 32 32">
<path d="M32 7.075c-1.175 0.525-2.444 0.875-3.769 1.031 1.356-0.813 2.394-2.1 2.887-3.631-1.269 0.75-2.675 1.3-4.169 1.594-1.2-1.275-2.906-2.069-4.794-2.069-3.625 0-6.563 2.938-6.563 6.563 0 0.512 0.056 1.012 0.169 1.494-5.456-0.275-10.294-2.888-13.531-6.862-0.563 0.969-0.887 2.1-0.887 3.3 0 2.275 1.156 4.287 2.919 5.463-1.075-0.031-2.087-0.331-2.975-0.819 0 0.025 0 0.056 0 0.081 0 3.181 2.263 5.838 5.269 6.437-0.55 0.15-1.131 0.231-1.731 0.231-0.425 0-0.831-0.044-1.237-0.119 0.838 2.606 3.263 4.506 6.131 4.563-2.25 1.762-5.075 2.813-8.156 2.813-0.531 0-1.050-0.031-1.569-0.094 2.913 1.869 6.362 2.95 10.069 2.95 12.075 0 18.681-10.006 18.681-18.681 0-0.287-0.006-0.569-0.019-0.85 1.281-0.919 2.394-2.075 3.275-3.394z"></path>
</symbol>
<symbol id="icon-chevron-right" viewBox="0 0 24 24">
<path d="M8.586 5.586c-0.781 0.781-0.781 2.047 0 2.828l3.585 3.586-3.585 3.586c-0.781 0.781-0.781 2.047 0 2.828 0.39 0.391 0.902 0.586 1.414 0.586s1.024-0.195 1.414-0.586l6.415-6.414-6.415-6.414c-0.78-0.781-2.048-0.781-2.828 0z"></path>
</symbol>
<symbol id="icon-chevron-left" viewBox="0 0 24 24">
<path d="M14.414 5.586c-0.78-0.781-2.048-0.781-2.828 0l-6.415 6.414 6.415 6.414c0.39 0.391 0.902 0.586 1.414 0.586s1.024-0.195 1.414-0.586c0.781-0.781 0.781-2.047 0-2.828l-3.585-3.586 3.585-3.586c0.781-0.781 0.781-2.047 0-2.828z"></path>
</symbol>
<symbol id="icon-shopping-cart" viewBox="0 0 24 24">
<path d="M20.756 5.345c-0.191-0.219-0.466-0.345-0.756-0.345h-13.819l-0.195-1.164c-0.080-0.482-0.497-0.836-0.986-0.836h-2.25c-0.553 0-1 0.447-1 1s0.447 1 1 1h1.403l1.86 11.164c0.008 0.045 0.031 0.082 0.045 0.124 0.016 0.053 0.029 0.103 0.054 0.151 0.032 0.066 0.075 0.122 0.12 0.179 0.031 0.039 0.059 0.078 0.095 0.112 0.058 0.054 0.125 0.092 0.193 0.13 0.038 0.021 0.071 0.049 0.112 0.065 0.116 0.047 0.238 0.075 0.367 0.075 0.001 0 11.001 0 11.001 0 0.553 0 1-0.447 1-1s-0.447-1-1-1h-10.153l-0.166-1h11.319c0.498 0 0.92-0.366 0.99-0.858l1-7c0.041-0.288-0.045-0.579-0.234-0.797zM18.847 7l-0.285 2h-3.562v-2h3.847zM14 7v2h-3v-2h3zM14 10v2h-3v-2h3zM10 7v2h-3c-0.053 0-0.101 0.015-0.148 0.030l-0.338-2.030h3.486zM7.014 10h2.986v2h-2.653l-0.333-2zM15 12v-2h3.418l-0.285 2h-3.133z"></path>
<path d="M10 19.5c0 0.828-0.672 1.5-1.5 1.5s-1.5-0.672-1.5-1.5c0-0.828 0.672-1.5 1.5-1.5s1.5 0.672 1.5 1.5z"></path>
<path d="M19 19.5c0 0.828-0.672 1.5-1.5 1.5s-1.5-0.672-1.5-1.5c0-0.828 0.672-1.5 1.5-1.5s1.5 0.672 1.5 1.5z"></path>
</symbol>
<symbol id="icon-instagram" viewBox="0 0 32 32">
<path d="M16 2.881c4.275 0 4.781 0.019 6.462 0.094 1.563 0.069 2.406 0.331 2.969 0.55 0.744 0.288 1.281 0.638 1.837 1.194 0.563 0.563 0.906 1.094 1.2 1.838 0.219 0.563 0.481 1.412 0.55 2.969 0.075 1.688 0.094 2.194 0.094 6.463s-0.019 4.781-0.094 6.463c-0.069 1.563-0.331 2.406-0.55 2.969-0.288 0.744-0.637 1.281-1.194 1.837-0.563 0.563-1.094 0.906-1.837 1.2-0.563 0.219-1.413 0.481-2.969 0.55-1.688 0.075-2.194 0.094-6.463 0.094s-4.781-0.019-6.463-0.094c-1.563-0.069-2.406-0.331-2.969-0.55-0.744-0.288-1.281-0.637-1.838-1.194-0.563-0.563-0.906-1.094-1.2-1.837-0.219-0.563-0.481-1.413-0.55-2.969-0.075-1.688-0.094-2.194-0.094-6.463s0.019-4.781 0.094-6.463c0.069-1.563 0.331-2.406 0.55-2.969 0.288-0.744 0.638-1.281 1.194-1.838 0.563-0.563 1.094-0.906 1.838-1.2 0.563-0.219 1.412-0.481 2.969-0.55 1.681-0.075 2.188-0.094 6.463-0.094zM16 0c-4.344 0-4.887 0.019-6.594 0.094-1.7 0.075-2.869 0.35-3.881 0.744-1.056 0.412-1.95 0.956-2.837 1.85-0.894 0.888-1.438 1.781-1.85 2.831-0.394 1.019-0.669 2.181-0.744 3.881-0.075 1.713-0.094 2.256-0.094 6.6s0.019 4.887 0.094 6.594c0.075 1.7 0.35 2.869 0.744 3.881 0.413 1.056 0.956 1.95 1.85 2.837 0.887 0.887 1.781 1.438 2.831 1.844 1.019 0.394 2.181 0.669 3.881 0.744 1.706 0.075 2.25 0.094 6.594 0.094s4.888-0.019 6.594-0.094c1.7-0.075 2.869-0.35 3.881-0.744 1.050-0.406 1.944-0.956 2.831-1.844s1.438-1.781 1.844-2.831c0.394-1.019 0.669-2.181 0.744-3.881 0.075-1.706 0.094-2.25 0.094-6.594s-0.019-4.887-0.094-6.594c-0.075-1.7-0.35-2.869-0.744-3.881-0.394-1.063-0.938-1.956-1.831-2.844-0.887-0.887-1.781-1.438-2.831-1.844-1.019-0.394-2.181-0.669-3.881-0.744-1.712-0.081-2.256-0.1-6.6-0.1v0z"></path>
<path d="M16 7.781c-4.537 0-8.219 3.681-8.219 8.219s3.681 8.219 8.219 8.219 8.219-3.681 8.219-8.219c0-4.537-3.681-8.219-8.219-8.219zM16 21.331c-2.944 0-5.331-2.387-5.331-5.331s2.387-5.331 5.331-5.331c2.944 0 5.331 2.387 5.331 5.331s-2.387 5.331-5.331 5.331z"></path>
<path d="M26.462 7.456c0 1.060-0.859 1.919-1.919 1.919s-1.919-0.859-1.919-1.919c0-1.060 0.859-1.919 1.919-1.919s1.919 0.859 1.919 1.919z"></path>
</symbol>

<symbol id="icon-logo" viewBox="0 0 143 25"> 

    <path d="M7.363 20.385c1.63 0 3.087-.537 4.237-1.47l.414.994h3.739V5.853h-3.605l-.495 1.087c-1.16-.958-2.637-1.51-4.29-1.51C3.069 5.43 0 8.527 0 12.88c0 4.37 3.07 7.505 7.363 7.505zm.646-4.287c-1.811 0-3.143-1.37-3.143-3.206 0-1.824 1.32-3.195 3.143-3.195 1.812 0 3.144 1.37 3.144 3.195 0 1.836-1.332 3.206-3.144 3.206zm17.535 4.287c4.148 0 6.91-2.562 6.91-6.495V5.868h-4.836v7.811c0 1.47-.782 2.357-2.074 2.357-1.292 0-2.09-.873-2.09-2.357V5.868h-4.836v8.022c0 3.933 2.778 6.495 6.926 6.495zm16.328.015c1.636 0 3.093-.557 4.235-1.52l.456 1.044h3.58V.792H45.36v5.591a6.551 6.551 0 00-3.489-.976c-4.309 0-7.378 3.12-7.378 7.489 0 4.368 3.07 7.504 7.378 7.504zm.647-4.287c-1.812 0-3.143-1.381-3.143-3.217 0-1.835 1.331-3.216 3.143-3.216 1.812 0 3.143 1.38 3.143 3.216 0 1.836-1.331 3.217-3.143 3.217zM57.976 4.109V0h-4.763v4.109h4.763zm.037 15.815V5.868h-4.837v14.056h4.837zm10.097.46c4.563 0 7.872-3.146 7.872-7.488 0-4.357-3.31-7.489-7.872-7.489-4.579 0-7.873 3.132-7.873 7.489 0 4.342 3.294 7.489 7.873 7.489zm0-4.348c-1.764 0-3.029-1.281-3.029-3.14 0-1.858 1.265-3.139 3.029-3.139 1.763 0 3.028 1.292 3.028 3.14 0 1.858-1.265 3.139-3.028 3.139zM82.998 25v-5.534a6.56 6.56 0 003.423.934c4.293 0 7.362-3.125 7.362-7.504 0-4.38-3.069-7.489-7.362-7.489-1.669 0-3.155.578-4.31 1.578l-.605-1.117h-3.29V25h4.782zm2.776-8.887c-1.812 0-3.143-1.37-3.143-3.217s1.331-3.217 3.143-3.217c1.811 0 3.143 1.37 3.143 3.217 0 1.846-1.343 3.217-3.143 3.217zm15.065 3.811v-7.506c0-1.804.912-2.843 2.376-2.843 1.262 0 1.83.826 1.83 2.447v7.902h4.837V11.46c0-3.644-2.071-6.008-5.295-6.008-1.4 0-2.714.507-3.748 1.34v-6h-4.837v19.132h4.837zM117.574 4.11V0h-4.763v4.109h4.763zm.037 15.815V5.868h-4.837v14.056h4.837zm7.878 0V.792h-4.836v19.132h4.836zm9.851.461c3.523 0 6.364-2.004 7.352-5.212h-4.813c-.465.823-1.409 1.318-2.539 1.318-1.527 0-2.55-.834-2.866-2.446H142.9c.063-.435.1-.858.1-1.282 0-4.123-3.134-7.356-7.66-7.356-4.407 0-7.626 3.17-7.626 7.478 0 4.295 3.245 7.5 7.626 7.5zm2.896-9.021h-5.677c.391-1.396 1.372-2.163 2.781-2.163 1.46 0 2.471.758 2.896 2.163z" fill="#FFF" fill-rule="nonzero"/>
</symbol>
</defs>
</svg>
